<?xml version="1.0" encoding="UTF-8"?>
<svg version="1.1" viewBox="0 0 2048 2048" width="1280" height="1280" xmlns="http://www.w3.org/2000/svg">
<path fill="currentColor"  transform="translate(241)" d="m0 0h1315v2l29 10 20 9 19 11 12 9 9 7 10 9 13 13 11 14 12 19 9 17 8 20 6 22 3 20 1 11 1 23v879l10-2 12-1h11l16 2 17 5 11 5 12 7 14 13 10 13 8 15 6 18 2 9 2 29 3 16 5 9 7 6 19 8 18 8 11 6 13 10 6 5 10 13 8 13 6 15 4 14 2 16v9l-3 16-6 16-8 16-8 13-10 19-1 9 4 13 14 24 8 14 6 17 3 13 1 6v16l-5 19-7 17-5 10-9 11-6 7-11 9-12 7-30 13-14 6-5 4-4 10-2 9-3 35 2 14 8 20 40 80 10 19 17 33 8 16 5 16 1 10-4 13-5 9-6 7-14 11-8 3-10 1-35-6-28-6-30-7-7 1-4 8-16 40-10 22-8 15-8 10-6 4-6 10h-42l-2-5-9-11-10-12-7-11-4-10-4-4-7 1-12 9-19 12-21 11-28 11-30 9h-1278l-1-2-21-6-15-5-21-9-23-12-14-10-11-9-12-11-12-14-9-12-11-18-8-16-7-16-5-16-4-20-2-19-1-18v-1639l2-22 5-19 5-17 9-21 12-21 11-16 11-14 20-20 18-13 23-13 15-7 15-6 11-4-2-2zm3 2m468 54-381 3-34 1-26 2-18 3-18 6-19 10-15 11-12 11-13 14-10 16-8 16-4 11-4 17-2 12-1 11-1 204v1436l2 24 6 26 7 17 9 15 11 14 12 12 13 10 11 7 11 6 19 8 16 4 14 2 13 1 33 1 255 1h359l308-2h95l17-1 2-1-1-7-11-23-7-17-4-2-36 9-30 7-23 4h-20l-12-6-7-6-7-10-5-11-2-7v-10l5-15 12-26 10-19 25-50 10-19 22-44 5-17v-34l-2-15-4-10-7-8-12-7-30-12-16-9-13-12-9-12-6-11-8-19-5-22-3-3h-562l-192-1-16-2-8-4-3-6-2-9v-16l4-13 1-3 5-2 2-1 10-1 83-1 657-1 32-1 11-4 8-7 5-10 3-11v-8l-4-12-11-21-7-12-8-19-7-28-1-1h-629l-119-1-17-1-10-2-5-4-3-13v-16l3-13 5-5 3-1 11-1 75-1 705-2 8-5 11-10 11-8 14-8 26-11 14-9 7-8 2-7 5-46 4-14 2-6-851-2-32-1-14-2-4-2-3-7-2-8v-18l2-8 3-6 8-4 5-1 20-1 103-1h881l14 3 5 2 19 3h10l9-6 14-14 9-11 6-6v-2h2l5-5 9-7 16-9 15-5 15-3h23l18 4 16 7 13 8 13 10 13 13 6 8 3 1v-10l-1-11-1-42-1-244v-291l1-145v-110l-1-38-2-20-5-19-6-15-8-14-8-11-9-10-10-10-18-13-15-8-18-7-16-4-21-2-24-1-78-1-153-1-272-2zm849 1036-10 4-11 8-10 10-7 8-12 12v2l-4 2-10 9-19 9-21 6h-26l-16-3-11-3-2-1-9-1h-25l-6 4-10 12-5 10-3 11-2 34-4 16-9 17-7 11-8 10-9 8-22 12-20 8-14 6-5 4-8 10-4 8-1 4v7l3 12 8 16 11 20 7 16 6 21v22l-5 23-8 16-14 26-6 10-2 6v8l3 10 6 9 6 7h2v2l9 6 20 8 16 8 11 7 10 9 8 9 9 15 7 16 3 17 2 26 3 15 4 8 9 10 6 5 15 5 9-1 29-7 10-2 20-1 19 3 15 5 15 8 10 8 7 7h2v2h2v2h2l2 4 15 16 1 2h2l2 4 12 7 19 2 9-3 6-4 6-7v-2h2l7-8 9-10 15-15 20-12 17-6 15-3h20l18 3 29 8h8l17-8 9-8 7-12 1-3 1-29 4-22 5-15 8-14 7-10 13-13 13-8 16-8 15-6 9-5 9-7 7-8 6-12v-7l-5-16-12-23-8-13-6-16-4-17-1-7v-13l2-10 7-21 9-16 7-11 8-16 4-12-2-9-4-11-6-8-8-8-25-10-21-9-13-10-6-5-1-2h-2l-2-4-11-18-6-13-4-17-2-21v-14l-4-12-7-11-8-9-9-4h-19l-21 5-17 4-8 1h-23l-18-6-15-8-11-8-13-12-10-10-9-11-8-7-14-8-3-1zm-234 682-5 5-10 19-23 46-9 17-8 13-8 16 12-2 22-5 25-5 22-3h14l8 3 11 8 9 12 8 16 9 21 8 24 4 6 5-1 5-5 11-24 8-16 20-38 8-15 17-34v-9l-5-12-7-9-10-10-9-5-10-4h-10l-37 8-19 2-13-1-14-3-15-6-13-9zm473 3-20 10-19 5-5 1h-16l-25-5-12-3-12-1h-3l-12 2-10 5-8 8-8 7-6 9-2 7 1 8 5 14 20 38 8 16 14 26 12 26 6 11 5 5 4-4 4-9 11-29 10-22 7-10 7-8 10-7 3-1 17-1 32 4 42 9h5l-3-9-10-19-9-17-13-28-13-27-7-9-3-2zm-234 73-16 3-6 5-20 40-11 23-10 19-12 22-9 17-2 7 8 1h12l28-2 25-5 15-5 24-13 13-10 10-8 7-7 2-3-1-7-29-58-8-12-9-6-4-1z"/>
<path fill="currentColor"  transform="translate(1301,162)" d="m0 0h96l66 1 9 3 6 7 4 10 7 28 5 14 6 10 11 11 11 5 15 5 21 6 13 5 8 5 2 5 1 6v625l-1 25-2 6-4 6-7 4-11 3-11 1-10-4-9-6-4-9-1-5-1-14v-596l-8-5-12-5-17-9-14-11-10-9-11-14-10-14-9-27-17-1-253-1h-513l-273 1-1 10-4 11-6 10-10 14-10 13-10 10-13 9-21 10-14 5h-2l1 5-1 149v1233l1 40 10 4 17 7 14 8 10 8 11 11 10 13 9 16 5 10 7 2h303l405 1 26 1 11 2 6 4 4 5 2 10-1 19-4 10-5 5-7 3-38 1h-740l-7-2-6-8-9-19-6-15-10-19-6-7-14-7-35-8-16-6-4-5-3-10-2-22-1-50v-1284l1-104 1-29 2-13 5-6 15-6 32-8 11-5 11-8 9-10 7-14 7-35 5-10 8-7 6-2 8-1z"/>
<path fill="currentColor"  transform="translate(1554,1239)" d="m0 0h27l25 3 21 5 20 8 16 8 17 10 14 11 13 11 11 11 13 17 10 15 7 12 10 24 7 24 3 15 2 21v18l-3 27-5 22-7 20-8 16-12 20-8 11-11 14-14 14-13 10-17 11-12 7-20 8-21 7-25 5-24 2h-16l-28-3-21-5-22-8-23-12-12-8-14-11-16-15-9-10-11-15-10-17-13-28-6-18-5-21-2-17v-30l3-24 5-19 11-28 9-17 7-11 9-12 7-9 13-14h2v-2l11-9 9-7 19-12 16-8 18-7 18-5 24-4zm2 61-22 3-19 5-12 5-17 10-16 13-15 16-10 15-8 16-7 18-5 21-1 7v33l4 19 7 19 9 19 10 14 11 12 10 9 15 10 12 7 19 8 16 4 14 2h30l25-5 19-7 17-9 14-10 10-9 11-11 10-14 8-14 6-17 5-19 2-11v-32l-3-19-6-18-8-18-8-13-10-13-10-10-13-10-13-8-17-8-15-5-21-4-10-1z"/>
<path fill="currentColor"  transform="translate(1243,706)" d="m0 0h48l105 1 11 2 6 4 4 4 2 6v17l-2 14-3 7-5 4-6 1-94 1h-222l-676-1-13-1-7-3-4-6-3-12v-15l3-11 6-7 5-2 8-1 57-1z"/>
<path fill="currentColor"  transform="translate(721,900)" d="m0 0h611l68 1 9 3 7 5 3 5v25l-4 12-5 6-7 2-29 1h-933l-31-1-17-2-5-5-3-9-1-6v-14l2-10 4-6 6-4 3-1 51-1z"/>
<path fill="currentColor"  transform="translate(685,458)" d="m0 0h397l25 1 12 3 5 3 4 9 1 6-1 16-3 12-6 7-8 2-15 1-171 1h-196l-59-1-9-2-6-4-4-5-4-11-1-11 4-13 6-9 8-4z"/>
<path fill="currentColor"  transform="translate(248,2045)" d="m0 0 3 2h-3z"/>
<path fill="currentColor"  transform="translate(238,2046)" d="m0 0 3 2h-3z"/>
<path  fill="currentColor" transform="translate(1544,2047)" d="m0 0 3 1z"/>
<path  fill="currentColor" transform="translate(1568)" d="m0 0 2 1z"/>
<path  fill="currentColor" transform="translate(239,2)" d="m0 0"/>
</svg>
