<?xml version="1.0" encoding="UTF-8"?>
<svg version="1.1" viewBox="0 0 2048 2048" width="1280" height="1280" xmlns="http://www.w3.org/2000/svg">
<path fill="currentColor" transform="translate(150)" d="m0 0h1103l3 1v-1h23l-1 3-11-1-1 3 23 10 19 11 17 13 14 12 7 7 6 5v2l4 2v2l4 2 4 4v2l4 2 4 4v2l4 2v2l4 2 278 278 9 11 11 13 11 16 11 21 7 21 2 14 1 15v340l2 10 4 6 11 12 8 10 11 15 8 13 8 15 10 24 7 23 4 19 2 21v33l-2 23-10 59-6 26-4 12-5 9-4 3-3 1h-11l-12-3-14-7-4-5-1-3v-18l10-68 3-27v-29l-3-26-6-23-8-20-10-18-10-14-13-15-13-12-19-13-18-10-20-8-13-4-27-4h-36l-16 2-18 4-17 6-16 8-11 7-17 12-17 16-9 11-8 11-12 20-8 18-5 16-4 19-2 19v21l3 32 6 39 13 78 10 63 14 89 8 51 8 53 2 8 2 1 23 1h196l8-1 2-16 8-53 13-78 6-35 6-12 3-3h16l26 5 7 4 1 2-1 17-8 62-6 40-9 53-3 13 10 1 66 2 23 2 17 4 14 6 16 10 16 16 10 14 8 15 10 26 10 34 11 38 5 13 9 6 18 10 13 11 10 10 10 14 10 21 4 14 1 5v24l-4 18-8 19-7 11-9 11-6 7-16 12-18 8-23 5-8 1-19 1-47 1-135 1v33l-1 38-2 27-3 15-6 17-11 21-7 10-9 12-11 12-4 4h-2v2l-13 9-14 8-17 8-25 9-6 2h-1415l-8-3-21-8-19-9-14-9-12-9-9-8v-2l-4-2-7-8-9-12-13-23-6-15-4-18-2-20-1-23v-1727l1-22 3-15 10-25 8-15 8-12 10-13 15-15 14-10 15-9 17-9 12-6zm1112 3m-889 55-143 1-35 1-24 2-12 3-12 5-14 9-10 9-12 16-7 15-5 16-2 19-1 263v1058l-1 337v62l1 20 3 21 5 16 9 16 9 11 9 8 18 11 13 5 20 4 9 1 24 1 602 1 96 1h373l228-2 40-1 19-2 15-4 16-8 14-10 13-14 8-14 5-13 3-14 2-20 1-21v-47l-1-1h-451l-25-1-19-3-14-5-13-7-14-11-10-11-7-10-8-14-6-17-3-15-1-11v-9l5-21 7-16 10-16 8-10 10-9 16-9 16-8 5-5 10-34 12-43 10-28 7-16 10-15 9-10 11-10 13-8 12-6 14-4 14-2 17-1 74-1-2-17-13-83-17-107-18-112-12-78-2-18v-34l2-16 9-35 8-21 8-17 9-16 10-15 13-17 16-17 13-12 18-13 18-11 16-8 19-8 25-7 22-4 16-2 20-1 25 2 28 5 21 6 23 8 4 2h3l-1-271h-313l-33-1-22-2-17-5-17-8-11-8-11-10-8-10-10-16-6-13-5-17-3-18-1-23 1-60 4-13 3-5v-2l5-2 11-3h12l10 3 6 4 4 5 3 11 1 13v58l2 18 4 13 5 10 8 10 10 6 9 3 14 2 18 1h121l194-1 8-1-1-5-10-14-11-14-11-12-7-8-11-11-6-7h-2l-2-4-4-4h-2l-2-4-190-190-5-6-7-6-7-8-3-3h-2l-1-3-7-6-5-6-8-7-14-14h-2l-1-3-8-7-9-9-8-7-12-11-11-9-15-11-7-3-1 37-1 60-1 32-3 13-5 6-15 6h-8l-13-4-10-8-3-10-1-17v-119l-237-1zm930 1435-23 1-9 2-9 5-7 7-8 13-7 16-12 37-10 29-1 7 639 1 13-1 2-3-13-44-11-33-8-17-7-10-13-7-11-2-18-1zm48 178-167 1-21 2-10 5-10 16-4 9-1 5v11l3 10 7 12 7 8 6 4 11 3 14 1h701l24-1 14-3 9-6 8-9 5-11 2-7v-15l-4-13-7-10-6-5-7-3-17-2-55-1z"/>
<path fill="currentColor" transform="translate(593,1125)" d="m0 0h47l36 3 24 4 27 7 29 10 30 13 25 13 18 11 19 13 16 12 14 12 10 9 5 5 7 6 7 8 7 7 9 11 12 15 13 19 12 20 12 23 12 26 12 35 8 30 6 36 2 18 1 15v30l-2 27-6 38-6 26-8 26-8 22-14 30-15 26-11 17-9 12-11 14-9 10-7 8-11 12-3 1-2 4-8 7-4 2v2l-10 8-11 9-19 14-19 12-32 17-36 15-22 7-38 9-27 4-36 3h-42l-23-2-22-3-20-4-31-9-20-7-26-11-19-10-17-10-19-12-21-16-10-9-8-7-10-9-15-15v-2h-2l-7-8-11-13-12-16-12-17-12-19-18-35-10-24-8-24-9-35-5-30-3-28v-41l3-26 6-36 4-15 6-12 7-6 2-1h10l17 4 12 5 4 5-1 20-6 47-1 12v53l3 27 5 25 5 17 10 27 5 12 14 28 8 13 8 12 9 12 9 11 18 20 14 14 11 9 15 12 17 12 22 13 19 10 21 9 19 7 26 7 28 5 34 3h36l24-2 22-4 31-8 31-11 25-12 22-12 12-8 20-14 13-11 9-7 18-18 12-14 12-15 7-11 9-14 8-14 8-15 10-24 10-31 6-26 5-32 1-26-1-29-3-27-3-19-6-25-9-26-8-20-12-25-13-22-13-19-13-16-7-8-11-12-8-7-13-11-17-13-15-10-17-10-28-14-27-11-26-8-29-6-24-3-14-1h-47l-27 3-28 6-25 7-20 8-20 9-21 12-19 12-13 10-9 7-10 9-10 8-11 11h-2l-2 4-13 14-11 14-7 8-8 7-8 6-6 2-14-7-10-9-7-8-2-5v-7l5-12 11-16 6-8h2l2-4 9-10 9-11 5-4 7-8 13-12 14-12 14-11 19-13 22-13 23-12 33-14 19-6 26-7 27-5 27-3z"/>
<path fill="currentColor" transform="translate(753,1296)" d="m0 0h18l14 2 14 5 14 8 13 11 7 8 9 14 5 10 4 14 1 7v16l-2 12-5 16-8 16-8 13-25 40-6 8-6 10-12 18-9 14-6 9-4 7-11 17-9 14-8 13-14 22-11 17-8 13-10 16-14 19-12 14-7 7-10 7-18 9-19 4h-20l-18-4-16-8-9-6-12-11-7-7-9-11-14-18-10-14-10-13-12-16-14-18-15-20-13-18-13-22-6-16-3-14v-16l4-17 7-16 6-9 10-13 8-7 14-9 14-6 14-3h28l19 5 14 7 14 10 7 7 13 17 5 6v2h2l5 6v2l4-2 6-8 10-18 10-15 11-18 9-14 9-13 9-15 15-23 6-9 6-8 7-9 9-9 15-10 12-5 12-3zm1 60-8 3-8 9-13 19-10 15-20 32-12 18-12 19-10 16-9 13-11 18-11 16-9 11-9 10-9 7v2l-14-4-9-6-11-10-9-11-20-26-13-16-7-8-9-7-6-3-10-1-6 3-11 10-7 11-1 2v10l4 9 10 16 11 14 8 10 11 14 14 19 11 15 8 11 11 14 10 13 9 9 1 2h2l2 4 12 7 3 1h10l10-6 3-3v-2h2l11-15 14-22 9-13 12-20 8-11 7-11 9-14 8-13 7-10 10-16 10-15 7-11 6-9 7-11 12-19 10-15 8-14 8-13 4-9 2-12-2-8-7-12-8-5-5-1z"/>
<path fill="currentColor" transform="translate(1185,634)" d="m0 0h204l40 1 15 3 6 4 3 4 2 7v25l-4 8-9 6-9 3h-994l-132-1-8-2-6-7-4-16v-11l3-12 6-7 5-2 7-1 21-1z"/>
<path fill="currentColor" transform="translate(437,812)" d="m0 0h84l638 1 16 1 9 2 6 4 4 4 2 6v17l-2 11-3 6-7 6-10 3h-862l-10-2-7-6-4-9-1-5v-17l4-11 4-5 5-3 6-1 30-1z"/>
<path fill="currentColor" transform="translate(601,1226)" d="m0 0 21 1 11 4 8 7 4 9v15l-3 10-4 6-6 4-17 4-21 2-34 6-18 5-20 8-17 8-17 10-5 4-12 9-15 14-7 6-1 2h-2l-2 4-11 12-16 22-13 24-5 11-7 20-4 13-4 22-4 40-4 10-8 8-10 4-9 1-13-3-8-5-5-6-3-8v-34l5-32 5-21 9-27 8-19 11-20 12-19 8-12 7-8 7-9 2-3h2v-2h2l2-4 10-11 8-7 12-11 16-12 19-12 22-12 27-11 18-6 30-7 21-3z"/>
<path fill="currentColor" transform="translate(867,1493)" d="m0 0h16l10 4 12 6 4 4 2 7v29l-3 26-5 23-7 25-6 15-9 20-8 15-11 18-10 14-9 11-7 8-14 15-5 5h-2v2l-8 7-14 12-13 9-20 12-21 10-31 12-18 5-34 7-21 3-15 1-17-2-8-5-4-5-3-6-2-9v-7l3-11 6-9 5-4 12-3 28-3 24-4 17-4 23-8 16-8 17-9 13-9 12-9 14-12h2v-2h2v-2l13-13 9-11 10-14 8-14 11-23 12-40 4-20 4-33 3-13 4-6 7-6z"/>
<path fill="currentColor" transform="translate(713,457)" d="m0 0h350l25 1 10 2 6 3 4 7 2 11-1 15-4 11-5 5-11 3-10 1-67 1h-322l-32-1-12-2-5-5-3-6-2-8v-18l3-10 6-7 7-2z"/>
<path fill="currentColor" transform="translate(152,2046)" d="m0 0 4 1-4 1z"/>
<path fill="currentColor" transform="translate(142,2046)" d="m0 0 3 1v1h-5z"/>
<path fill="currentColor" transform="translate(162,2047)" d="m0 0 2 1z"/>
<path fill="currentColor" transform="translate(149,2046)" d="m0 0"/>
<path fill="currentColor" transform="translate(1591,2047)" d="m0 0"/>
<path fill="currentColor" transform="translate(151,2045)" d="m0 0"/>
<path fill="currentColor" transform="translate(147)" d="m0 0"/>
</svg>
